<svg height="466pt" viewBox="0 -50 466.004 466" width="466pt" xmlns="http://www.w3.org/2000/svg"><path d="m43 32.625c0-2.074219.84375-4.0625 2.339844-5.5 1.5-1.4375 3.515625-2.203125 5.589844-2.121094h335.089843c2.082031-.085937 4.105469.679688 5.609375 2.117188s2.359375 3.421875 2.371094 5.503906v39.378906h22v-41.617187c.058594-8.09375-3.136719-15.875-8.871094-21.589844-5.734375-5.710937-13.523437-8.8828125-21.617187-8.79296875h-334.070313c-8.089844-.08593745-15.871094 3.08593775-21.597656 8.80078175-5.726562 5.714843-8.914062 13.492187-8.84375 21.582031v237.617187h22zm0 0"/><path d="m235 336.003906v-31h-37.082031c-13.085938 0-25.578125-5.457031-34.46875-15.0625l-5.511719-5.9375h-157.9375v21.617188c0 17.027344 13.875 30.382812 30.898438 30.382812zm0 0"/><path d="m378 72.003906v-31h-319v227h102.441406c2.222656-.035156 4.359375.867188 5.882813 2.488282l7.890625 8.46875c5.84375 6.359374 14.070312 9.996093 22.703125 10.042968h37.082031v-182.664062c0-19.089844 15.746094-34.335938 34.8125-34.335938zm0 0"/><path d="m278 113.003906h161v205h-161zm0 0"/><path d="m447.242188 88.003906h-177.40625c-4.933594-.066406-9.691407 1.832032-13.222657 5.273438-3.535156 3.445312-5.554687 8.152344-5.613281 13.085937v241.441407c0 10.269531 8.566406 18.199218 18.859375 18.199218h184.339844c3.191406.105469 6.285156-1.113281 8.546875-3.363281 2.160156-2.144531 3.332031-5.085937 3.246094-8.128906 0-.078125.011718-.039063.011718-.117188v-248.054687c-.042968-4.921875-2.046875-9.628906-5.570312-13.070313-3.519532-3.441406-8.269532-5.335937-13.191406-5.265625zm-80.308594 270h-16.753906c-4.417969 0-8-3.582031-8-8 0-4.417968 3.582031-8 8-8h16.753906c4.417968 0 8 3.582032 8 8 0 4.417969-3.582032 8-8 8zm88.066406-32c0 4.417969-3.582031 8-8 8h-177c-4.417969 0-8-3.582031-8-8v-221c0-4.417968 3.582031-8 8-8h177c4.417969 0 8 3.582032 8 8zm0 0"/></svg>