<svg id="Layer_1" enable-background="new 0 0 512 512" height="512" viewBox="0 0 512 512" width="512" xmlns="http://www.w3.org/2000/svg"><g><path d="m201.916 285.86 24.224 24.224 151.91-151.903-24.231-24.231z"/><path d="m325.871 252.784-89.124 89.121c-5.848 5.847-15.345 5.867-21.213 0l-45.437-45.437c-5.858-5.857-5.858-15.355 0-21.213l102.779-102.783c-11.279-12.309-30.09-28.307-53.206-30.596-21.07-2.085-54.183 8.655-72.812 57.515-9.088 23.837-14.66 24.526-37.953 25.078-20.319.482-48.146 1.142-75.039 28.034-53.619 53.617-41.742 138.524 22.718 202.992 71.75 71.741 155.306 70.403 202.991 22.717 26.892-26.892 27.552-54.72 28.034-75.039.573-24.192 1.7-30.113 25.157-34.716 62.492-12.262 76.03-66.25 43.375-98.919-8.531-8.527-19.732-13.661-30.27-16.754zm-134.562 134.565c-5.858 5.859-15.357 5.857-21.213 0l-45.445-45.445c-5.858-5.858-5.858-15.355 0-21.213 5.857-5.858 15.355-5.858 21.213 0l45.445 45.445c5.858 5.858 5.858 15.355 0 21.213z"/><path d="m507.606 72.557-7.315-7.315c-1.463-13.663-7.494-26.323-17.352-36.19-9.857-9.849-22.515-15.878-36.181-17.342l-7.315-7.315c-5.857-5.858-15.354-5.858-21.212-.001l-55.004 54.997c-2.813 2.813-4.394 6.629-4.394 10.607v9.415c0 4.578-1.78 8.879-5.013 12.112l66.657 66.657c3.233-3.233 7.534-5.013 12.112-5.013h9.415c3.979 0 7.794-1.581 10.607-4.394l54.997-55.004c5.856-5.86 5.856-15.357-.002-21.214z"/></g></svg>