<svg id="Layer_1" enable-background="new 0 0 512 512" height="512" viewBox="0 0 512 512" width="512" xmlns="http://www.w3.org/2000/svg"><g><path d="m370.06 403.543h27.321v16.82h-27.321z"/><path d="m370.06 356.192h27.321v17.351h-27.321z"/><path d="m511.935 357.661v-259.901c0-8.771-7.11-15.882-15.882-15.882h-480.107c-8.771 0-15.882 7.11-15.882 15.882v259.901c0 8.771 7.11 15.882 15.882 15.882h68.802v-20.378c0-14.897 12.076-26.973 26.973-26.973h33.376c14.897 0 26.973 12.076 26.973 26.973v20.378h167.99v-20.378c0-14.897 12.076-26.973 26.973-26.973h33.376c14.897 0 26.973 12.076 26.973 26.973v20.378h68.673c8.77 0 15.88-7.11 15.88-15.882zm-255.72-28.644c-58.322 0-105.771-47.449-105.771-105.771 5.81-140.319 205.753-140.278 211.541.001.001 58.321-47.448 105.77-105.77 105.77z"/><path d="m256.215 147.475c-41.78 0-75.771 33.991-75.771 75.771 4.162 100.521 147.394 100.491 151.541-.001.001-41.779-33.99-75.77-75.77-75.77zm31.757 90.771h-16.757v16.757c-.793 19.902-29.215 19.887-30 0v-16.757h-16.757c-19.902-.793-19.887-29.215 0-30h16.757v-16.757c.793-19.902 29.215-19.887 30 0v16.757h16.757c19.902.792 19.887 29.214 0 30z"/><path d="m166.004 51.879 11.599-14.361c3.858-4.778 9.593-7.518 15.734-7.518h124.584c6.363 0 12.43 3.048 16.228 8.155l10.208 13.724h37.389l-23.525-31.629c-9.432-12.68-24.497-20.25-40.3-20.25h-124.584c-15.249 0-29.49 6.804-39.072 18.667l-26.823 33.211h38.562z"/><path d="m427.381 403.543v19.847c0 14.873-12.1 26.973-26.973 26.973h-33.376c-14.873 0-26.973-12.1-26.973-26.973v-19.847h-167.989v19.847c0 14.873-12.1 26.973-26.973 26.973h-33.376c-14.873 0-26.973-12.1-26.973-26.973v-19.847h-72.252v93.457c0 8.284 6.716 15 15 15h455.299c8.284 0 15-6.716 15-15v-93.457z"/><path d="m114.748 356.192h27.321v17.351h-27.321z"/><path d="m114.748 403.543h27.321v16.82h-27.321z"/></g></svg>