<svg id="Layer_1" enable-background="new 0 0 512.157 512.157" height="512" viewBox="0 0 512.157 512.157" width="512" xmlns="http://www.w3.org/2000/svg"><g><path d="m335.435 210.686c-34.426-34.426-44.104-46.373-67.35-58.46-50.28-26.159-115.081-19.312-158.93 24.52-9.36 9.36-9.36 24.59 0 33.95l192.32 192.32c9.283 9.303 24.471 9.478 33.96.01 53.422-53.422 52.832-139.508 0-192.34z"/><path d="m335.435 120.186c-4.117-4.117-7.767-8.565-10.944-13.29-.644-.957-1.946-1.195-2.869-.503l-41.358 31.03c-1.153.865-1.035 2.631.221 3.339 22.411 12.646 33.304 25.658 66.26 58.614 9.686 9.677 17.964 20.529 24.672 32.315.717 1.259 2.478 1.387 3.348.228l31.012-41.346c.692-.922.463-2.241-.502-2.871-9.104-5.946-11.701-9.387-69.84-67.516z"/><path d="m505.145 131.496-124.46-124.46c-9.362-9.362-24.567-9.373-33.94 0-28.129 28.15-28.152 73.678 0 101.83l56.57 56.56c28.111 28.152 73.666 28.153 101.83.01v-.01c9.35-9.36 9.35-24.58 0-33.93z"/><path d="m8.525 459.226c-19.033 20.412-3.931 52.92 22.99 52.92 7.68 0 15.36-2.82 21.44-8.5l166.493-155.641c1.239-1.159 1.272-3.113.073-4.313l-51.032-51.032c-1.2-1.2-3.154-1.167-4.313.073z"/></g></svg>