<svg id="Capa_1" enable-background="new 0 0 512 512" height="512" viewBox="0 0 512 512" width="512" xmlns="http://www.w3.org/2000/svg"><g><path d="m91 302.981c13.31-5.031 20.176-2.155 73.667-2.981 12.073 0 23.079 4.646 31.333 12.238 8.255-7.592 19.26-12.238 31.333-12.238h57.334c12.073 0 23.078 4.646 31.333 12.237 8.255-7.592 19.26-12.237 31.333-12.237 53.582.828 60.395-2.035 73.667 2.981v-97.981h-330z"/><path d="m451 270v92h-30v-15.667c0-9.006-7.327-16.333-16.333-16.333h-57.334c-9.006 0-16.333 7.327-16.333 16.333v15.667h-30v-15.667c0-9.006-7.327-16.333-16.333-16.333h-57.334c-9.006 0-16.333 7.327-16.333 16.333v15.667h-30v-15.667c0-9.006-7.327-16.333-16.333-16.333h-57.334c-9.006 0-16.333 7.327-16.333 16.333v15.667h-30v-92h-61v182h31v60h45l15-60h329.938l15 60h45v-60h31.062c0-45.287 0-145.231 0-182z"/><path d="m451 127.5c0-32.063-22.478-58.957-52.5-65.799v-61.701h-30v61.701c-30.022 6.842-52.5 33.736-52.5 65.799v22.5h135z"/><path d="m171.5 0h80.5v60.019h-80.5z"/><path d="m61 0h80.5v60.019h-80.5z"/><path d="m61 90.019h80.5v59.981h-80.5z"/><path d="m171.5 90.019h80.5v59.981h-80.5z"/></g></svg>