<svg id="Capa_1" enable-background="new 0 0 512 512" height="512" viewBox="0 0 512 512" width="512" xmlns="http://www.w3.org/2000/svg"><g><path d="m456 482h-45.189c-22.269-16.186-37.366-33.388-44.686-50.776-2.349-5.579-7.782-9.224-13.835-9.224h-192.579c-6.053 0-11.487 3.646-13.835 9.224-7.321 17.388-22.418 34.59-44.687 50.776h-45.189c-8.284 0-15 6.716-15 15s6.716 15 15 15h400c8.284 0 15-6.716 15-15s-6.716-15-15-15z"/><path d="m335.909 220h60.129c8.673 0 15.58-7.336 14.972-15.988-4.898-69.704-26.141-138.562-61.043-196.73-2.711-4.517-7.594-7.282-12.863-7.282h-24.549l1.199 5.642c13.455 63.275 21.24 138.854 22.155 214.358z"/><path d="m284.411 11.881-2.526-11.881h-51.771l-2.526 11.881c-13.034 61.304-20.585 134.669-21.494 208.119h99.812c-.909-73.45-8.46-146.815-21.495-208.119z"/><path d="m115.962 220h15.038v61c0 8.284 6.716 15 15 15s15-6.716 15-15v-61h15.091c.915-75.504 8.699-151.083 22.153-214.358l1.2-5.642h-24.548c-5.269 0-10.151 2.765-12.862 7.282-34.903 58.169-56.146 127.027-61.043 196.73-.609 8.652 6.298 15.988 14.971 15.988z"/><path d="m226 250h60v142h-60z"/></g></svg>